<?xml version="1.0" encoding="us-ascii" standalone="no"?><svg xmlns="http://www.w3.org/2000/svg" xmlns:xlink="http://www.w3.org/1999/xlink" contentStyleType="text/css" height="353px" preserveAspectRatio="none" style="width:692px;height:353px;background:#FFFFFF;" version="1.1" viewBox="0 0 692 353" width="692px" zoomAndPan="magnify"><defs/><g><rect fill="#FFFFFF" height="341.9531" style="stroke:#181818;stroke-width:0.5;" width="232" x="147" y="6"/><text fill="#000000" font-family="sans-serif" font-size="13" font-weight="bold" lengthAdjust="spacing" textLength="60" x="230.5" y="18.0669">Browser</text><rect fill="#FFFFFF" height="341.9531" style="stroke:#181818;stroke-width:0.5;" width="272" x="414" y="6"/><text fill="#000000" font-family="sans-serif" font-size="13" font-weight="bold" lengthAdjust="spacing" textLength="90" x="505" y="18.0669">Kroki Server</text><rect fill="#FFFFFF" height="145.6641" style="stroke:#181818;stroke-width:1.0;" width="10" x="298.5" y="132.9922"/><line style="stroke:#181818;stroke-width:0.5;stroke-dasharray:5.0,5.0;" x1="73" x2="73" y1="72.7266" y2="296.6563"/><line style="stroke:#181818;stroke-width:0.5;stroke-dasharray:5.0,5.0;" x1="186" x2="186" y1="72.7266" y2="296.6563"/><line style="stroke:#181818;stroke-width:0.5;stroke-dasharray:5.0,5.0;" x1="303" x2="303" y1="72.7266" y2="296.6563"/><line style="stroke:#181818;stroke-width:0.5;stroke-dasharray:5.0,5.0;" x1="473" x2="473" y1="72.7266" y2="296.6563"/><line style="stroke:#181818;stroke-width:0.5;stroke-dasharray:5.0,5.0;" x1="610" x2="610" y1="72.7266" y2="296.6563"/><text fill="#000000" font-family="sans-serif" font-size="14" lengthAdjust="spacing" textLength="130" x="5" y="69.4248">Local or remote file</text><ellipse cx="73" cy="40.4297" fill="#E2E2F0" rx="12" ry="12" style="stroke:#181818;stroke-width:0.5;"/><line style="stroke:#181818;stroke-width:0.5;" x1="61" x2="85" y1="54.4297" y2="54.4297"/><text fill="#000000" font-family="sans-serif" font-size="14" lengthAdjust="spacing" textLength="130" x="5" y="308.6514">Local or remote file</text><ellipse cx="73" cy="327.9531" fill="#E2E2F0" rx="12" ry="12" style="stroke:#181818;stroke-width:0.5;"/><line style="stroke:#181818;stroke-width:0.5;" x1="61" x2="85" y1="341.9531" y2="341.9531"/><rect fill="#E2E2F0" height="30.2969" rx="2.5" ry="2.5" style="stroke:#181818;stroke-width:0.5;" width="71" x="151" y="41.4297"/><text fill="#000000" font-family="sans-serif" font-size="14" lengthAdjust="spacing" textLength="57" x="158" y="61.4248">Browser</text><rect fill="#E2E2F0" height="30.2969" rx="2.5" ry="2.5" style="stroke:#181818;stroke-width:0.5;" width="71" x="151" y="295.6563"/><text fill="#000000" font-family="sans-serif" font-size="14" lengthAdjust="spacing" textLength="57" x="158" y="315.6514">Browser</text><rect fill="#E2E2F0" height="46.5938" rx="2.5" ry="2.5" style="stroke:#181818;stroke-width:0.5;" width="143" x="232" y="25.1328"/><text fill="#000000" font-family="sans-serif" font-size="14" lengthAdjust="spacing" textLength="76" x="265.5" y="45.1279">Asciidoctor</text><text fill="#000000" font-family="sans-serif" font-size="14" lengthAdjust="spacing" textLength="129" x="239" y="61.4248">Browser Extension</text><rect fill="#E2E2F0" height="46.5938" rx="2.5" ry="2.5" style="stroke:#181818;stroke-width:0.5;" width="143" x="232" y="295.6563"/><text fill="#000000" font-family="sans-serif" font-size="14" lengthAdjust="spacing" textLength="76" x="265.5" y="315.6514">Asciidoctor</text><text fill="#000000" font-family="sans-serif" font-size="14" lengthAdjust="spacing" textLength="129" x="239" y="331.9482">Browser Extension</text><rect fill="#E2E2F0" height="30.2969" rx="2.5" ry="2.5" style="stroke:#181818;stroke-width:0.5;" width="111" x="418" y="41.4297"/><text fill="#000000" font-family="sans-serif" font-size="14" lengthAdjust="spacing" textLength="97" x="425" y="61.4248">Kroki Gateway</text><rect fill="#E2E2F0" height="30.2969" rx="2.5" ry="2.5" style="stroke:#181818;stroke-width:0.5;" width="111" x="418" y="295.6563"/><text fill="#000000" font-family="sans-serif" font-size="14" lengthAdjust="spacing" textLength="97" x="425" y="315.6514">Kroki Gateway</text><rect fill="#E2E2F0" height="30.2969" rx="2.5" ry="2.5" style="stroke:#181818;stroke-width:0.5;" width="143" x="539" y="41.4297"/><text fill="#000000" font-family="sans-serif" font-size="14" lengthAdjust="spacing" textLength="129" x="546" y="61.4248">Diagram generator</text><rect fill="#E2E2F0" height="30.2969" rx="2.5" ry="2.5" style="stroke:#181818;stroke-width:0.5;" width="143" x="539" y="295.6563"/><text fill="#000000" font-family="sans-serif" font-size="14" lengthAdjust="spacing" textLength="129" x="546" y="315.6514">Diagram generator</text><rect fill="#FFFFFF" height="145.6641" style="stroke:#181818;stroke-width:1.0;" width="10" x="298.5" y="132.9922"/><polygon fill="#181818" points="174.5,99.8594,184.5,103.8594,174.5,107.8594,178.5,103.8594" style="stroke:#181818;stroke-width:1.0;"/><line style="stroke:#181818;stroke-width:1.0;" x1="73" x2="180.5" y1="103.8594" y2="103.8594"/><text fill="#000000" font-family="sans-serif" font-size="13" lengthAdjust="spacing" textLength="54" x="80" y="98.7935">AsciiDoc</text><polygon fill="#181818" points="286.5,128.9922,296.5,132.9922,286.5,136.9922,290.5,132.9922" style="stroke:#181818;stroke-width:1.0;"/><line style="stroke:#181818;stroke-width:1.0;" x1="186.5" x2="292.5" y1="132.9922" y2="132.9922"/><text fill="#000000" font-family="sans-serif" font-size="13" lengthAdjust="spacing" textLength="54" x="193.5" y="127.9263">AsciiDoc</text><polygon fill="#181818" points="461.5,158.125,471.5,162.125,461.5,166.125,465.5,162.125" style="stroke:#181818;stroke-width:1.0;"/><line style="stroke:#181818;stroke-width:1.0;" x1="308.5" x2="467.5" y1="162.125" y2="162.125"/><text fill="#000000" font-family="sans-serif" font-size="13" lengthAdjust="spacing" textLength="141" x="315.5" y="157.0591">encoded diagram text</text><polygon fill="#181818" points="598.5,187.2578,608.5,191.2578,598.5,195.2578,602.5,191.2578" style="stroke:#181818;stroke-width:1.0;"/><line style="stroke:#181818;stroke-width:1.0;" x1="473.5" x2="604.5" y1="191.2578" y2="191.2578"/><text fill="#000000" font-family="sans-serif" font-size="13" lengthAdjust="spacing" textLength="82" x="480.5" y="186.1919">diagram text</text><polygon fill="#181818" points="484.5,216.3906,474.5,220.3906,484.5,224.3906,480.5,220.3906" style="stroke:#181818;stroke-width:1.0;"/><line style="stroke:#181818;stroke-width:1.0;" x1="478.5" x2="609.5" y1="220.3906" y2="220.3906"/><text fill="#000000" font-family="sans-serif" font-size="13" lengthAdjust="spacing" textLength="40" x="490.5" y="215.3247">image</text><polygon fill="#181818" points="319.5,245.5234,309.5,249.5234,319.5,253.5234,315.5,249.5234" style="stroke:#181818;stroke-width:1.0;"/><line style="stroke:#181818;stroke-width:1.0;" x1="313.5" x2="472.5" y1="249.5234" y2="249.5234"/><text fill="#000000" font-family="sans-serif" font-size="13" lengthAdjust="spacing" textLength="40" x="325.5" y="244.4575">image</text><polygon fill="#181818" points="197.5,274.6563,187.5,278.6563,197.5,282.6563,193.5,278.6563" style="stroke:#181818;stroke-width:1.0;"/><line style="stroke:#181818;stroke-width:1.0;" x1="191.5" x2="302.5" y1="278.6563" y2="278.6563"/><text fill="#000000" font-family="sans-serif" font-size="13" lengthAdjust="spacing" textLength="43" x="203.5" y="273.5903">HTML5</text><!--SRC=[RO-nJWCn38RtF8Lrp1rP44825O54cM1aSHDJhFRYocVrshV7pJN7dUYM-F-S_mjbOpj1ivA8En05fLQCu9jtr01svH3MSeGdbRuZXPl-Xut27jKuyXwpZP7Zw-4uYvl7BZ8dYIRwbIlyV3JA7KikDLHlfQjvKzaoV90UI9jhbHVY1OrwF9KdjkV975eoRXHRs50cHQylu7WBb1DuNpX_4XOFrHxke2Wl9OOwydHqdEOOZGzkCVd17-TBnSeNA4T9b21TbCofC8HEZKfENY7k5pE2MzpGfCRZMZD4LTg3gVJhv_lgDYJwx_mB]--></g></svg>