<?xml version="1.0" encoding="UTF-8" standalone="no"?>
<!DOCTYPE svg PUBLIC "-//W3C//DTD SVG 1.1//EN" "http://www.w3.org/Graphics/SVG/1.1/DTD/svg11.dtd">
<svg width="100%" height="100%" viewBox="0 0 16 16" version="1.1" xmlns="http://www.w3.org/2000/svg" xmlns:xlink="http://www.w3.org/1999/xlink" xml:space="preserve" xmlns:serif="http://www.serif.com/" style="fill-rule:evenodd;clip-rule:evenodd;stroke-linejoin:round;stroke-miterlimit:1.41421;">
    <g transform="matrix(0.157067,0,0,0.157067,-45.56,-219.252)">
        <path d="M333.115,1473.24C333.198,1473.24 333.333,1473.24 333.416,1473.24C333.581,1473.23 333.85,1473.2 334.013,1473.18C334.586,1473.1 335.494,1472.81 336.009,1472.54C336.449,1472.31 337.113,1471.85 337.472,1471.5C338.011,1470.99 338.7,1469.97 338.976,1469.28C339.253,1468.59 339.457,1467.37 339.421,1466.63C339.398,1466.13 339.244,1465.33 339.082,1464.86C338.866,1464.23 338.319,1463.29 337.886,1462.79C337.453,1462.29 336.596,1461.62 336.009,1461.31C335.568,1461.09 334.797,1460.82 334.31,1460.73C334.147,1460.7 333.88,1460.65 333.715,1460.64C333.633,1460.63 333.498,1460.63 333.416,1460.62C333.333,1460.62 333.198,1460.62 333.115,1460.62L296.371,1460.62C296.288,1460.62 296.154,1460.62 296.071,1460.62C295.906,1460.63 295.636,1460.65 295.473,1460.68C294.818,1460.77 293.787,1461.13 293.215,1461.46C292.785,1461.71 292.144,1462.21 291.801,1462.57C291.288,1463.11 290.648,1464.16 290.405,1464.86C290.161,1465.56 290.015,1466.79 290.086,1467.53C290.133,1468.02 290.325,1468.82 290.51,1469.28C290.755,1469.89 291.345,1470.81 291.801,1471.29C292.258,1471.77 293.147,1472.4 293.748,1472.67C294.199,1472.88 294.982,1473.11 295.473,1473.18C295.636,1473.2 295.906,1473.23 296.071,1473.24L307.903,1473.24L301.356,1489.08C301.282,1489.26 301.17,1489.57 301.115,1489.77C300.968,1490.29 300.862,1491.17 300.88,1491.71C300.903,1492.38 301.154,1493.46 301.43,1494.07C301.679,1494.62 302.24,1495.45 302.663,1495.89C303.227,1496.47 304.355,1497.18 305.119,1497.45C305.82,1497.69 307.036,1497.84 307.774,1497.77C308.243,1497.73 308.997,1497.55 309.438,1497.38C309.941,1497.19 310.71,1496.75 311.131,1496.42C311.605,1496.04 312.265,1495.3 312.581,1494.78C312.722,1494.55 312.916,1494.15 313.024,1493.9L321.569,1473.24L333.115,1473.24ZM335.078,1441.41L344.274,1418.91L375.017,1493.88C375.16,1494.2 375.261,1494.43 375.439,1494.73C375.706,1495.18 376.248,1495.83 376.634,1496.18C377.02,1496.53 377.734,1497 378.205,1497.21C378.677,1497.43 379.497,1497.68 380.012,1497.75C381.174,1497.91 383.091,1497.51 384.098,1496.91C384.544,1496.64 385.203,1496.1 385.551,1495.71C385.985,1495.23 386.541,1494.31 386.769,1493.71C387.089,1492.85 387.236,1491.35 387.086,1490.45C387.044,1490.2 386.942,1489.78 386.861,1489.54C386.821,1489.41 386.744,1489.21 386.699,1489.09L350.104,1399.84C350.051,1399.73 349.969,1399.53 349.912,1399.41C349.74,1399.07 349.397,1398.54 349.153,1398.25C348.503,1397.45 347.082,1396.49 346.098,1396.2C345.852,1396.12 345.443,1396.03 345.189,1395.99C345.062,1395.97 344.853,1395.95 344.725,1395.93C344.597,1395.93 344.387,1395.93 344.259,1395.92C344.131,1395.93 343.92,1395.93 343.792,1395.94C343.536,1395.95 343.121,1396.02 342.871,1396.08C341.741,1396.34 340.099,1397.35 339.368,1398.25C339.125,1398.55 338.782,1399.07 338.61,1399.42C338.553,1399.53 338.472,1399.73 338.419,1399.85L321.437,1441.41L305.482,1441.41C305.4,1441.41 305.265,1441.41 305.182,1441.41C305.017,1441.42 304.748,1441.45 304.584,1441.47C303.929,1441.57 302.899,1441.93 302.326,1442.26C301.897,1442.5 301.256,1443.01 300.914,1443.37C300.572,1443.73 300.098,1444.39 299.871,1444.83C299.53,1445.49 299.211,1446.69 299.176,1447.43C299.14,1448.17 299.344,1449.38 299.621,1450.07C299.867,1450.69 300.457,1451.6 300.914,1452.08C301.37,1452.56 302.258,1453.19 302.86,1453.46C303.311,1453.67 304.093,1453.9 304.584,1453.98C304.748,1454.01 305.017,1454.03 305.182,1454.04C305.265,1454.04 305.4,1454.04 305.482,1454.05L342.226,1454.05C342.309,1454.04 342.445,1454.04 342.527,1454.04C342.692,1454.03 342.962,1454.01 343.126,1453.98C343.616,1453.9 344.398,1453.67 344.849,1453.46C345.451,1453.19 346.339,1452.56 346.796,1452.08C347.252,1451.6 347.842,1450.69 348.088,1450.07C348.272,1449.61 348.465,1448.82 348.512,1448.32C348.559,1447.83 348.52,1447.02 348.427,1446.53C348.286,1445.8 347.802,1444.67 347.37,1444.07C346.938,1443.46 346.028,1442.63 345.384,1442.26C344.882,1441.97 343.989,1441.63 343.421,1441.52C343.259,1441.49 342.991,1441.46 342.826,1441.44C342.744,1441.43 342.61,1441.42 342.527,1441.41L342.226,1441.41L335.078,1441.41Z" style="fill:rgb(255,0,64);"/>
    </g>
</svg>
