<?xml version="1.0" encoding="UTF-8" standalone="no"?>
<!DOCTYPE svg PUBLIC "-//W3C//DTD SVG 1.1//EN" "http://www.w3.org/Graphics/SVG/1.1/DTD/svg11.dtd">
<svg width="100%" height="100%" viewBox="0 0 135 135" version="1.1" xmlns="http://www.w3.org/2000/svg" xmlns:xlink="http://www.w3.org/1999/xlink" xml:space="preserve" xmlns:serif="http://www.serif.com/" style="fill-rule:evenodd;clip-rule:evenodd;stroke-linejoin:round;stroke-miterlimit:1.41421;">
    <g transform="matrix(1,0,0,1,-274.625,-101.85)">
        <g transform="matrix(1.44661,0,0,1.44661,562.043,831.12)">
            <g transform="matrix(0.691274,0,0,0.691274,-388.525,-1462.81)">
                <path d="M376.078,1386.84C394.461,1386.84 409.384,1401.76 409.384,1420.14L409.384,1488.29C409.384,1506.67 394.46,1521.59 376.078,1521.59L307.931,1521.59C289.549,1521.59 274.625,1506.67 274.625,1488.29L274.625,1420.14C274.625,1401.76 289.549,1386.84 307.931,1386.84L376.078,1386.84ZM336.582,1473.69C336.665,1473.69 336.747,1473.69 336.83,1473.69C336.995,1473.68 337.16,1473.66 337.323,1473.64C337.896,1473.56 338.454,1473.38 338.969,1473.11C339.409,1472.88 339.817,1472.6 340.176,1472.25C340.715,1471.74 341.141,1471.11 341.417,1470.42C341.694,1469.73 341.82,1468.98 341.784,1468.24C341.761,1467.74 341.666,1467.25 341.504,1466.78C341.288,1466.15 340.951,1465.57 340.518,1465.07C340.085,1464.57 339.556,1464.16 338.969,1463.85C338.528,1463.63 338.055,1463.46 337.568,1463.37C337.405,1463.34 337.242,1463.31 337.077,1463.3C336.995,1463.29 336.912,1463.29 336.83,1463.28C336.747,1463.28 336.665,1463.28 336.582,1463.28L306.271,1463.28C306.188,1463.28 306.106,1463.28 306.023,1463.28C305.858,1463.29 305.693,1463.3 305.53,1463.33C304.875,1463.42 304.239,1463.64 303.667,1463.97C303.237,1464.22 302.844,1464.53 302.501,1464.89C301.988,1465.43 301.592,1466.08 301.349,1466.78C301.105,1467.48 301.015,1468.24 301.086,1468.98C301.133,1469.47 301.251,1469.96 301.436,1470.42C301.681,1471.03 302.045,1471.6 302.501,1472.08C302.958,1472.56 303.506,1472.95 304.107,1473.22C304.558,1473.43 305.039,1473.57 305.53,1473.64C305.693,1473.66 305.858,1473.68 306.023,1473.69L315.784,1473.69L310.383,1486.75C310.309,1486.93 310.239,1487.12 310.184,1487.32C310.037,1487.84 309.972,1488.38 309.99,1488.92C310.013,1489.59 310.168,1490.26 310.444,1490.87C310.693,1491.42 311.038,1491.93 311.461,1492.37C312.025,1492.95 312.723,1493.39 313.487,1493.66C314.188,1493.9 314.939,1493.99 315.677,1493.92C316.146,1493.88 316.609,1493.77 317.05,1493.6C317.553,1493.41 318.026,1493.14 318.447,1492.81C318.921,1492.43 319.327,1491.97 319.643,1491.45C319.784,1491.22 319.9,1490.98 320.008,1490.73L327.057,1473.69L336.582,1473.69ZM338.201,1447.44L345.787,1428.88L371.148,1490.71C371.291,1491.03 371.318,1491.11 371.496,1491.41C371.763,1491.86 372.096,1492.26 372.482,1492.61C372.868,1492.96 373.307,1493.25 373.778,1493.46C374.25,1493.68 374.754,1493.83 375.269,1493.9C376.431,1494.06 377.632,1493.81 378.639,1493.21C379.085,1492.94 379.49,1492.61 379.838,1492.22C380.272,1491.74 380.615,1491.17 380.843,1490.57C381.163,1489.71 381.254,1488.78 381.104,1487.88C381.062,1487.63 381,1487.37 380.919,1487.13C380.879,1487 380.83,1486.88 380.785,1486.76L350.597,1413.15C350.544,1413.04 350.495,1412.92 350.438,1412.8C350.266,1412.46 350.056,1412.13 349.812,1411.84C349.162,1411.04 348.276,1410.44 347.292,1410.15C347.046,1410.07 346.796,1410.02 346.542,1409.98C346.415,1409.96 346.287,1409.95 346.159,1409.93C346.031,1409.93 345.903,1409.93 345.775,1409.92C345.647,1409.93 345.518,1409.93 345.39,1409.94C345.134,1409.95 344.88,1409.99 344.63,1410.05C343.5,1410.31 342.471,1410.94 341.74,1411.84C341.497,1412.14 341.287,1412.46 341.115,1412.81C341.058,1412.92 341.01,1413.04 340.957,1413.16L326.948,1447.44L313.787,1447.44C313.705,1447.44 313.622,1447.44 313.539,1447.44C313.374,1447.45 313.21,1447.47 313.046,1447.49C312.391,1447.59 311.756,1447.81 311.183,1448.14C310.754,1448.38 310.36,1448.69 310.018,1449.05C309.676,1449.41 309.385,1449.82 309.158,1450.26C308.817,1450.92 308.62,1451.66 308.585,1452.4C308.549,1453.14 308.675,1453.89 308.952,1454.58C309.198,1455.2 309.561,1455.76 310.018,1456.24C310.474,1456.72 311.022,1457.11 311.624,1457.38C312.075,1457.59 312.555,1457.73 313.046,1457.8C313.21,1457.83 313.374,1457.84 313.539,1457.85C313.622,1457.85 313.705,1457.85 313.787,1457.86L344.098,1457.86C344.181,1457.85 344.264,1457.85 344.346,1457.85C344.511,1457.84 344.676,1457.83 344.84,1457.8C345.33,1457.73 345.811,1457.59 346.262,1457.38C346.864,1457.11 347.411,1456.72 347.868,1456.24C348.324,1455.76 348.688,1455.2 348.934,1454.58C349.118,1454.12 349.236,1453.64 349.283,1453.14C349.33,1452.65 349.306,1452.15 349.213,1451.66C349.072,1450.93 348.773,1450.23 348.341,1449.63C347.909,1449.02 347.347,1448.51 346.703,1448.14C346.201,1447.85 345.652,1447.64 345.084,1447.53C344.922,1447.5 344.758,1447.48 344.593,1447.46C344.511,1447.45 344.429,1447.45 344.346,1447.44L344.098,1447.44L338.201,1447.44Z" style="fill:rgb(255,0,64);"/>
            </g>
        </g>
    </g>
</svg>
